<svg width="24" height="24" viewBox="0 0 24 24" fill="none" xmlns="http://www.w3.org/2000/svg">
  <path d="M12 2C7.58 2 4 6.48 4 12C4 17.52 7.58 22 12 22C16.42 22 20 17.52 20 12C20 6.48 16.42 2 12 2ZM12 20C8.69 20 6 16.41 6 12C6 7.59 8.69 4 12 4C15.31 4 18 7.59 18 12C18 16.41 15.31 20 12 20Z" fill="#22C55E"/>
  <circle cx="12" cy="8.5" r="2.5" fill="#22C55E"/>
  <path d="M12 13C10.9 13 10 13.9 10 15V17C10 17.55 10.45 18 11 18H13C13.55 18 14 17.55 14 17V15C14 13.9 13.1 13 12 13Z" fill="#22C55E"/>
</svg>
