<svg width="32" height="32" viewBox="0 0 32 32" xmlns="http://www.w3.org/2000/svg">
  <style>
    /* 브라우저 설정에 따라 색상 자동 변경 */
    path {
      fill: #5C9973;
    }
    @media (prefers-color-scheme: dark) {
      path {
        fill: #66A67F;
      }
    }
  </style>
  <path d="M16 2C10 2 6 8 6 16C6 24 10 30 16 30C22 30 26 24 26 16C26 8 22 2 16 2ZM16 12C17.66 12 19 10.66 19 9C19 7.34 17.66 6 16 6C14.34 6 13 7.34 13 9C13 10.66 14.34 12 16 12ZM16 26C14 26 12 24.5 12 22C12 20 13.5 19 16 19C18.5 19 20 20 20 22C20 24.5 18 26 16 26Z"/>
</svg>
